<svg  viewBox="0 0 221 39" fill="none" xmlns="http://www.w3.org/2000/svg">
<path d="M5.04 12.76V9.64H0.28V31H5.28V20.64C5.28 16.28 7.68 14.04 11.48 14.04C11.84 14.04 12.2 14.08 12.64 14.16V9.4C9.08 9.4 6.48 10.52 5.04 12.76ZM19.4016 6.12C21.2816 6.12 22.6016 4.76 22.6016 3C22.6016 1.36 21.2416 0.119999 19.4016 0.119999C17.5616 0.119999 16.2016 1.44 16.2016 3.12C16.2016 4.8 17.5616 6.12 19.4016 6.12ZM16.8816 31H21.8816V9.64H16.8816V31ZM40.2841 9.4C37.3641 9.4 34.8841 10.4 33.2041 12.44V9.64H28.4441V38.76H33.4441V28.4C35.1641 30.36 37.5641 31.28 40.2841 31.28C46.5241 31.28 51.1241 26.96 51.1241 20.32C51.1241 13.72 46.5241 9.4 40.2841 9.4ZM39.7241 27C36.1241 27 33.3641 24.4 33.3641 20.32C33.3641 16.24 36.1241 13.64 39.7241 13.64C43.3241 13.64 46.0441 16.24 46.0441 20.32C46.0441 24.4 43.3241 27 39.7241 27ZM75.9459 20.44C75.9459 13.76 71.3859 9.4 65.1459 9.4C58.7859 9.4 54.1059 13.96 54.1059 20.32C54.1059 26.68 58.7459 31.28 65.9059 31.28C69.5859 31.28 72.5859 30.08 74.5059 27.8L71.8259 24.72C70.3059 26.28 68.4259 27.04 66.0259 27.04C62.3059 27.04 59.7059 25.04 59.1059 21.92H75.8659C75.9059 21.44 75.9459 20.84 75.9459 20.44ZM65.1459 13.4C68.4259 13.4 70.7859 15.52 71.1859 18.6H59.0659C59.5459 15.48 61.9059 13.4 65.1459 13.4ZM87.3488 31.28C93.3488 31.28 97.0288 28.68 97.0288 24.68C97.0288 16.32 83.8288 20.16 83.8288 15.84C83.8288 14.44 85.2688 13.44 88.3088 13.44C90.3488 13.44 92.3888 13.84 94.4288 15.04L96.3488 11.24C94.4288 10.08 91.1888 9.4 88.3488 9.4C82.5888 9.4 78.9488 12.04 78.9488 16.08C78.9488 24.6 92.1488 20.76 92.1488 24.84C92.1488 26.32 90.8288 27.2 87.6688 27.2C84.9888 27.2 82.1088 26.32 80.2288 25.08L78.3088 28.88C80.2288 30.24 83.7888 31.28 87.3488 31.28ZM121.415 20.44C121.415 13.76 116.855 9.4 110.615 9.4C104.255 9.4 99.5747 13.96 99.5747 20.32C99.5747 26.68 104.215 31.28 111.375 31.28C115.055 31.28 118.055 30.08 119.975 27.8L117.295 24.72C115.775 26.28 113.895 27.04 111.495 27.04C107.775 27.04 105.175 25.04 104.575 21.92H121.335C121.375 21.44 121.415 20.84 121.415 20.44ZM110.615 13.4C113.895 13.4 116.255 15.52 116.655 18.6H104.535C105.015 15.48 107.375 13.4 110.615 13.4ZM146.298 20.44C146.298 13.76 141.738 9.4 135.498 9.4C129.138 9.4 124.458 13.96 124.458 20.32C124.458 26.68 129.098 31.28 136.258 31.28C139.938 31.28 142.938 30.08 144.858 27.8L142.178 24.72C140.658 26.28 138.778 27.04 136.378 27.04C132.658 27.04 130.058 25.04 129.458 21.92H146.218C146.258 21.44 146.298 20.84 146.298 20.44ZM135.498 13.4C138.778 13.4 141.138 15.52 141.538 18.6H129.418C129.898 15.48 132.258 13.4 135.498 13.4ZM167.02 1.32V12.28C165.34 10.32 162.9 9.4 160.14 9.4C153.94 9.4 149.34 13.68 149.34 20.32C149.34 26.96 153.94 31.28 160.14 31.28C163.06 31.28 165.54 30.28 167.22 28.24V31H172.02V1.32H167.02ZM160.74 27C157.14 27 154.38 24.4 154.38 20.32C154.38 16.24 157.14 13.64 160.74 13.64C164.34 13.64 167.1 16.24 167.1 20.32C167.1 24.4 164.34 27 160.74 27Z" fill="#1AA087"/>
<path d="M180.161 31.28C181.961 31.28 183.441 29.88 183.441 27.96C183.441 25.96 181.961 24.64 180.161 24.64C178.361 24.64 176.881 25.96 176.881 27.96C176.881 29.88 178.361 31.28 180.161 31.28ZM190.847 6.12C192.727 6.12 194.047 4.76 194.047 3C194.047 1.36 192.687 0.119999 190.847 0.119999C189.007 0.119999 187.647 1.44 187.647 3.12C187.647 4.8 189.007 6.12 190.847 6.12ZM188.327 31H193.327V9.64H188.327V31ZM209.489 31.28C216.129 31.28 220.889 26.72 220.889 20.32C220.889 13.92 216.129 9.4 209.489 9.4C202.929 9.4 198.129 13.92 198.129 20.32C198.129 26.72 202.929 31.28 209.489 31.28ZM209.489 27C205.889 27 203.169 24.4 203.169 20.32C203.169 16.24 205.889 13.64 209.489 13.64C213.129 13.64 215.849 16.24 215.849 20.32C215.849 24.4 213.129 27 209.489 27Z" fill="#FFAB00"/>
</svg>
